<svg width="466" height="466" viewBox="0 0 466 466" fill="none" xmlns="http://www.w3.org/2000/svg">
<path d="M466 356.397H0V356.63H466V356.397Z" fill="#E0E0E0"/>
<path d="M111.514 366.267H80.0681V366.5H111.514V366.267Z" fill="#E0E0E0"/>
<path d="M73.2272 366.379H54.5686V366.612H73.2272V366.379Z" fill="#E0E0E0"/>
<path d="M282.508 361.383H194.164V361.616H282.508V361.383Z" fill="#E0E0E0"/>
<path d="M156.371 372.875H128.206V373.108H156.371V372.875Z" fill="#E0E0E0"/>
<path d="M385.54 364.589H312.22V364.822H385.54V364.589Z" fill="#E0E0E0"/>
<path d="M220.884 314.83H40.9241C39.5143 314.827 38.1631 314.265 37.1671 313.268C36.1711 312.27 35.6117 310.918 35.6117 309.508V56.5351C35.624 55.1334 36.1888 53.7932 37.1835 52.8055C38.1781 51.8178 39.5223 51.2624 40.9241 51.26H220.884C222.295 51.26 223.649 51.8207 224.647 52.8187C225.645 53.8167 226.206 55.1703 226.206 56.5817V309.508C226.206 310.919 225.645 312.273 224.647 313.271C223.649 314.269 222.295 314.83 220.884 314.83ZM40.9241 51.4464C39.5761 51.4489 38.2842 51.9861 37.3319 52.9402C36.3795 53.8942 35.8447 55.1871 35.8447 56.5351V309.508C35.8447 310.856 36.3795 312.149 37.3319 313.103C38.2842 314.057 39.5761 314.594 40.9241 314.597H220.884C222.233 314.594 223.526 314.057 224.48 313.103C225.433 312.15 225.97 310.857 225.973 309.508V56.5351C225.97 55.1863 225.433 53.8934 224.48 52.9396C223.526 51.9858 222.233 51.4489 220.884 51.4464H40.9241Z" fill="#E0E0E0"/>
<path d="M422.485 314.83H242.516C241.105 314.827 239.753 314.266 238.755 313.268C237.758 312.271 237.196 310.919 237.194 309.508V56.5351C237.209 55.1326 237.776 53.7923 238.772 52.8049C239.768 51.8174 241.113 51.2624 242.516 51.26H422.485C423.885 51.2649 425.227 51.8213 426.22 52.8087C427.212 53.7962 427.776 55.135 427.788 56.5351V309.508C427.788 310.916 427.23 312.267 426.236 313.264C425.242 314.262 423.893 314.825 422.485 314.83ZM242.516 51.4464C241.167 51.4489 239.874 51.9858 238.92 52.9396C237.966 53.8934 237.429 55.1863 237.427 56.5351V309.508C237.429 310.857 237.966 312.15 238.92 313.103C239.874 314.057 241.167 314.594 242.516 314.597H422.485C423.834 314.594 425.127 314.057 426.08 313.103C427.034 312.15 427.571 310.857 427.574 309.508V56.5351C427.571 55.1863 427.034 53.8934 426.08 52.9396C425.127 51.9858 423.834 51.4489 422.485 51.4464H242.516Z" fill="#E0E0E0"/>
<path d="M392.577 247.707H368.83V356.397H392.577V247.707Z" fill="#E0E0E0"/>
<path d="M388.066 356.397H392.577V343.563H383.341L388.066 356.397Z" fill="#F0F0F0"/>
<path d="M303.832 247.707H280.085V356.397H303.832V247.707Z" fill="#E0E0E0"/>
<path d="M392.577 247.707H299.89V348.521H392.577V247.707Z" fill="#F0F0F0"/>
<path d="M347.748 299.153V332.482H389.082V299.153H347.748Z" fill="#E0E0E0"/>
<path d="M303.394 299.153V332.482H344.728V299.153H303.394Z" fill="#E0E0E0"/>
<path d="M328.148 302.751H319.965C318.208 302.75 316.469 302.392 314.855 301.696C313.242 301.001 311.787 299.983 310.58 298.706H337.533C336.326 299.983 334.871 301.001 333.258 301.696C331.644 302.392 329.905 302.75 328.148 302.751Z" fill="#F0F0F0"/>
<path d="M372.921 302.751H364.748C362.989 302.751 361.249 302.392 359.633 301.696C358.018 301.001 356.562 299.983 355.353 298.706H382.316C381.106 299.983 379.65 300.999 378.035 301.695C376.419 302.39 374.68 302.75 372.921 302.751Z" fill="#F0F0F0"/>
<path d="M347.748 255.293V288.622H389.082V255.293H347.748Z" fill="#E0E0E0"/>
<path d="M303.385 255.303V288.631H344.719V255.303H303.385Z" fill="#E0E0E0"/>
<path d="M328.148 258.891H319.965C318.209 258.89 316.471 258.532 314.857 257.838C313.244 257.144 311.789 256.13 310.58 254.855H337.533C336.324 256.13 334.869 257.144 333.255 257.838C331.642 258.532 329.904 258.89 328.148 258.891Z" fill="#F0F0F0"/>
<path d="M372.921 258.891H364.748C362.99 258.89 361.251 258.532 359.636 257.838C358.021 257.145 356.564 256.13 355.353 254.855H382.316C381.104 256.129 379.647 257.143 378.032 257.837C376.418 258.531 374.679 258.889 372.921 258.891Z" fill="#F0F0F0"/>
<path d="M304.401 356.397H299.89V343.563H309.135L304.401 356.397Z" fill="#F0F0F0"/>
<path d="M322.817 230.679C322.817 234.836 325.706 237.725 321.549 237.725C317.393 237.725 307.774 234.836 307.774 230.679C307.774 228.685 308.567 226.772 309.977 225.361C311.388 223.95 313.301 223.158 315.296 223.158C317.29 223.158 319.203 223.95 320.614 225.361C322.024 226.772 322.817 228.685 322.817 230.679Z" fill="#E0E0E0"/>
<path d="M335.688 234.268C335.688 238.415 338.577 241.313 334.42 241.313C330.264 241.313 320.608 238.415 320.608 234.268C320.608 232.273 321.4 230.36 322.811 228.949C324.221 227.539 326.135 226.746 328.129 226.746C330.124 226.746 332.037 227.539 333.448 228.949C334.858 230.36 335.651 232.273 335.651 234.268H335.688Z" fill="#E0E0E0"/>
<path d="M348.018 232.068C348.018 236.215 350.907 239.114 346.751 239.114C342.594 239.114 332.976 236.215 332.976 232.068C332.976 230.073 333.768 228.16 335.179 226.75C336.589 225.339 338.502 224.547 340.497 224.547C342.492 224.547 344.405 225.339 345.815 226.75C347.226 228.16 348.018 230.073 348.018 232.068Z" fill="#E0E0E0"/>
<path d="M303.17 233C303.17 233 303.785 247.67 327.356 247.67C350.926 247.67 351.532 233 351.532 233H303.17Z" fill="#E6E6E6"/>
<path d="M393.565 68.9587H274.055V201.209H393.565V68.9587Z" fill="#E0E0E0"/>
<path d="M406.352 64.8765H266.319C266.163 64.8753 266.008 64.905 265.863 64.9639C265.718 65.0229 265.587 65.1099 265.476 65.2199C265.365 65.3299 265.277 65.4608 265.217 65.605C265.157 65.7493 265.126 65.9039 265.126 66.0602C265.126 66.3766 265.252 66.68 265.475 66.9037C265.699 67.1274 266.003 67.2531 266.319 67.2531H406.352C406.508 67.2531 406.663 67.2222 406.807 67.1621C406.951 67.1021 407.082 67.0141 407.192 66.9032C407.302 66.7923 407.389 66.6607 407.448 66.516C407.507 66.3713 407.537 66.2164 407.536 66.0602C407.536 65.7462 407.411 65.4452 407.189 65.2232C406.967 65.0012 406.666 64.8765 406.352 64.8765Z" fill="#E0E0E0"/>
<path d="M398.635 68.9587H276.422V201.209H398.635V68.9587Z" fill="#E6E6E6"/>
<path d="M393.565 201.209H274.055V210.632H393.565V201.209Z" fill="#E0E0E0"/>
<path d="M407.079 201.209H284.866V210.632H407.079V201.209Z" fill="#E6E6E6"/>
<path d="M391.533 194.098V76.0512H283.524V194.098H391.533Z" fill="#F5F5F5"/>
<path d="M308.045 194.108L349.714 76.0605H369.38L327.71 194.108H308.045Z" fill="#FAFAFA"/>
<path d="M331.932 194.108L373.601 76.0605H381.272L339.602 194.108H331.932Z" fill="#FAFAFA"/>
<path d="M391.533 194.108V76.0605H390.629V194.108H391.533Z" fill="#E0E0E0"/>
<path d="M283.608 62.7516H271.389V176.661H283.608V62.7516Z" fill="#EBEBEB"/>
<path d="M288.361 62.7516H278.845V176.661H288.361V62.7516Z" fill="#E0E0E0"/>
<path d="M295.826 62.7516H283.608V176.661H295.826V62.7516Z" fill="#EBEBEB"/>
<path d="M300.579 62.7516H291.064V176.661H300.579V62.7516Z" fill="#E0E0E0"/>
<path d="M308.045 62.7516H295.826V176.661H308.045V62.7516Z" fill="#EBEBEB"/>
<path d="M386.985 62.7516H379.948V176.661H386.985V62.7516Z" fill="#EBEBEB"/>
<path d="M389.734 62.7516H384.245V176.661H389.734V62.7516Z" fill="#E0E0E0"/>
<path d="M394.022 62.7516H386.985V176.661H394.022V62.7516Z" fill="#EBEBEB"/>
<path d="M396.771 62.7516H391.282V176.661H396.771V62.7516Z" fill="#E0E0E0"/>
<path d="M401.068 62.7516H394.031V176.661H401.068V62.7516Z" fill="#EBEBEB"/>
<path d="M102.865 98.4565H90.1337V133.192H102.865V98.4565Z" fill="#E6E6E6"/>
<path d="M72.7333 141.142L68.6884 152.177H72.7333L97.4872 141.142H72.7333Z" fill="#F0F0F0"/>
<path d="M68.6884 141.142V152.177L93.4517 141.142H68.6884Z" fill="#E0E0E0"/>
<path d="M169.81 141.142L165.775 152.177H169.81L194.574 141.142H169.81Z" fill="#F0F0F0"/>
<path d="M165.775 141.142V152.177L190.529 141.142H165.775Z" fill="#E0E0E0"/>
<path d="M50.5237 141.664H77.4492V133.267H50.5237V141.664Z" fill="#E0E0E0"/>
<path d="M211.303 133.267H77.4399V141.664H211.303V133.267Z" fill="#F0F0F0"/>
<path d="M124.068 133.192H93.0788L89.2483 91.0937H120.237L124.068 133.192Z" fill="#E0E0E0"/>
<path d="M125.671 133.192H94.6912L90.8514 91.0937H121.84L125.671 133.192Z" fill="#F0F0F0"/>
<path d="M98.9225 128.532L95.9401 95.7537H117.609L120.591 128.532H98.9225Z" fill="#FAFAFA"/>
<path d="M138.178 119.52C138.178 119.52 138.747 133.192 160.714 133.192C182.681 133.192 183.25 119.52 183.25 119.52H138.178Z" fill="#E6E6E6"/>
<path d="M115.344 353.377H81.3915C80.6228 353.393 79.8695 353.161 79.2425 352.716C78.6155 352.271 78.148 351.636 77.9089 350.905C77.6699 350.175 77.6719 349.386 77.9146 348.657C78.1573 347.927 78.628 347.295 79.2572 346.853L79.8071 347.599C79.3598 347.933 79.0289 348.4 78.8613 348.933C78.6936 349.466 78.6976 350.038 78.8727 350.569C79.0478 351.099 79.3852 351.561 79.8372 351.89C80.2892 352.218 80.8329 352.396 81.3915 352.399H115.344C117.425 352.396 119.419 351.568 120.891 350.097C122.362 348.626 123.189 346.632 123.192 344.551V244.072C123.194 241.808 124.094 239.637 125.694 238.035C127.295 236.433 129.465 235.531 131.729 235.526H141.888V236.458H131.729C129.712 236.463 127.779 237.267 126.353 238.694C124.928 240.121 124.126 242.055 124.124 244.072V344.598C124.119 346.925 123.192 349.155 121.547 350.8C119.901 352.446 117.671 353.372 115.344 353.377Z" fill="#E0E0E0"/>
<path d="M228.759 237.446H167.611V356.397H228.759V237.446Z" fill="#E0E0E0"/>
<path d="M231.061 237.446H226.019V356.397H231.061V237.446Z" fill="#EBEBEB"/>
<path d="M111.029 246.365L232.618 246.365V237.446H111.029V246.365Z" fill="#EBEBEB"/>
<path d="M110.302 237.446H49.1537V356.397H110.302V237.446Z" fill="#E0E0E0"/>
<path d="M112.595 237.446H107.553V356.397H112.595V237.446Z" fill="#EBEBEB"/>
<path d="M91.364 201.936H148.346L156.604 235.582H99.6215L91.364 201.936Z" fill="#E0E0E0"/>
<path d="M99.6215 235.582L99.8545 237.446H156.837L156.613 235.582H99.6215Z" fill="#E0E0E0"/>
<path d="M93.1254 201.936H150.108L158.365 235.582H101.383L93.1254 201.936Z" fill="#F0F0F0"/>
<path d="M102.585 234.044L95.0826 203.474H148.896L156.399 234.044H102.585Z" fill="#FAFAFA"/>
<path d="M116.23 235.582L116.453 237.446H179.205L178.972 235.582H116.23Z" fill="#F0F0F0"/>
<path d="M71.8292 228.964C71.8292 228.964 63.4412 214.509 75.0819 202.999C75.0819 202.999 78.1109 204.984 78.0643 207.659C78.0177 210.334 74.8209 210.995 75.5013 213.251C76.1817 215.506 79.2293 217.65 77.2348 219.486C75.2403 221.322 77.5517 222.953 77.4212 225.208C77.2907 227.464 71.8292 228.964 71.8292 228.964Z" fill="#F0F0F0"/>
<path d="M72.463 230.288C72.463 230.288 75.8648 213.922 61.1951 206.671C61.1951 206.671 58.9397 209.514 59.8251 212.021C60.7105 214.528 63.9631 214.155 64.0097 216.485C64.0563 218.815 61.8661 221.825 64.3359 222.944C66.8057 224.062 65.1188 226.336 65.9576 228.424C66.7964 230.512 72.463 230.288 72.463 230.288Z" fill="#F0F0F0"/>
<path d="M59.648 226.662C59.648 226.662 59.9276 237.446 70.6176 237.446C81.3077 237.446 81.5593 226.662 81.5593 226.662H59.648Z" fill="#E0E0E0"/>
<path d="M210.39 356.397H208.265L202.179 326.424L201.116 321.177L194.48 288.557H169.046L155.262 356.397H153.137L167.182 287.261C167.228 287.026 167.355 286.814 167.54 286.663C167.726 286.511 167.958 286.429 168.198 286.432H195.329C195.568 286.429 195.801 286.511 195.986 286.663C196.172 286.814 196.299 287.026 196.344 287.261L202.169 315.948L203.241 321.195L210.39 356.397Z" fill="#EBEBEB"/>
<path d="M251.221 356.397H249.086L235.302 288.519H209.877L203.241 321.195L202.179 326.424L196.093 356.397H193.968L201.116 321.177L202.169 315.948L208.004 287.261C208.049 287.026 208.176 286.814 208.362 286.663C208.547 286.511 208.78 286.429 209.02 286.432H236.15C236.39 286.431 236.624 286.513 236.81 286.664C236.997 286.815 237.126 287.026 237.175 287.261L251.221 356.397Z" fill="#EBEBEB"/>
<path d="M188.534 287.475H235.265C239.552 287.471 243.667 285.788 246.728 282.786C249.789 279.785 251.552 275.703 251.64 271.417L253.383 200.399C253.408 198.816 253.117 197.243 252.529 195.773C251.941 194.303 251.066 192.965 249.956 191.836C248.846 190.707 247.523 189.81 246.063 189.196C244.604 188.583 243.037 188.266 241.453 188.264H212.161C209.228 188.266 206.399 189.345 204.211 191.297C202.024 193.25 200.63 195.938 200.296 198.852L188.534 287.475Z" fill="#E6E6E6"/>
<path d="M214.015 287.475H164.218C163.6 287.475 163.008 287.23 162.571 286.793C162.134 286.356 161.888 285.763 161.888 285.145V284.922C161.888 283.224 162.563 281.595 163.764 280.394C164.964 279.193 166.593 278.519 168.291 278.519H214.015V287.475Z" fill="#E6E6E6"/>
<path d="M233 398.486C332.801 398.486 413.706 393.762 413.706 387.936C413.706 382.109 332.801 377.385 233 377.385C133.199 377.385 52.2945 382.109 52.2945 387.936C52.2945 393.762 133.199 398.486 233 398.486Z" fill="#F5F5F5"/>
<path d="M257.642 159.204L258.248 159.717C258.472 159.913 258.723 160.099 258.966 160.285C259.45 160.667 259.898 161.05 260.457 161.413C261.463 162.149 262.535 162.82 263.607 163.491C265.769 164.824 268.035 165.98 270.383 166.949C272.72 167.945 275.128 168.768 277.587 169.41C278.202 169.577 278.836 169.689 279.451 169.829L280.383 170.034C280.579 170.034 280.383 170.034 280.383 170.081C280.256 170.11 280.136 170.164 280.029 170.239C279.945 170.323 279.945 170.323 279.982 170.304C280.166 170.031 280.311 169.733 280.411 169.419C280.742 168.344 280.945 167.233 281.017 166.11C281.128 164.889 281.166 163.603 281.156 162.308C281.156 159.708 280.951 157.051 280.746 154.386C280.541 151.72 280.215 149.045 279.87 146.361C279.525 143.677 279.143 140.993 278.743 138.346L282.247 137.545C283.79 142.864 285.035 148.266 285.975 153.724C286.463 156.5 286.802 159.3 286.991 162.112C287.1 163.563 287.134 165.019 287.093 166.474C287.08 168.08 286.877 169.678 286.487 171.236C286.224 172.233 285.796 173.178 285.22 174.032C284.817 174.615 284.316 175.123 283.738 175.533C283.075 176.007 282.314 176.325 281.511 176.465C280.82 176.581 280.114 176.581 279.423 176.465L278.351 176.288C277.633 176.167 276.907 176.073 276.198 175.915C273.34 175.347 270.535 174.543 267.81 173.51C265.087 172.465 262.453 171.2 259.935 169.727C258.677 168.972 257.446 168.179 256.253 167.313C255.657 166.884 255.07 166.381 254.483 165.971C254.194 165.728 253.905 165.495 253.616 165.234C253.327 164.973 253.057 164.759 252.684 164.405L257.642 159.204Z" fill="#E4897B"/>
<path d="M247.511 154.964C257.763 153.575 266.002 161.842 266.002 161.842L256.626 176.306C256.626 176.306 246.579 169.876 244.808 165.495C242.982 160.938 242.264 155.644 247.511 154.964Z" fill="#212121"/>
<path opacity="0.6" d="M247.511 154.964C257.763 153.575 266.002 161.842 266.002 161.842L256.626 176.306C256.626 176.306 246.579 169.876 244.808 165.495C242.982 160.938 242.264 155.644 247.511 154.964Z" fill="#FAFAFA"/>
<path d="M278.826 139.604L275.425 132.782L284.344 132.707C284.344 132.707 284.521 137.47 282.265 140.163L278.826 139.604Z" fill="#E4897B"/>
<path d="M277.009 125.447L283.645 126.631L284.344 132.707L275.425 132.782L277.009 125.447Z" fill="#E4897B"/>
<path d="M211.256 380.135L219.607 380.936L225.386 361.327L217.035 360.516L211.256 380.135Z" fill="#E4897B"/>
<path d="M158.16 351.131L164.349 356.947L177.714 342.258L171.525 336.443L158.16 351.131Z" fill="#E4897B"/>
<path d="M167.21 354.16L162.55 345.772C162.471 345.628 162.342 345.518 162.188 345.461C162.034 345.405 161.865 345.406 161.711 345.464L154.544 348.186C154.367 348.262 154.207 348.374 154.076 348.516C153.945 348.658 153.845 348.825 153.782 349.008C153.72 349.191 153.697 349.385 153.714 349.577C153.731 349.769 153.789 349.956 153.883 350.124C155.551 353.014 156.511 354.328 158.543 358.009C159.801 360.283 162.271 365.465 163.995 368.615C165.719 371.765 168.916 370.19 168.478 368.736C166.483 362.212 166.865 358.55 167.424 355.688C167.537 355.17 167.461 354.628 167.21 354.16Z" fill="#263238"/>
<path d="M220.586 378.392H210.464C210.283 378.394 210.108 378.455 209.965 378.566C209.822 378.677 209.719 378.832 209.672 379.007L207.463 387.013C207.411 387.203 207.404 387.402 207.442 387.594C207.48 387.787 207.563 387.969 207.683 388.124C207.803 388.279 207.958 388.405 208.135 388.49C208.312 388.576 208.506 388.619 208.703 388.616C212.272 388.616 213.959 388.616 218.414 388.616H232.012C235.74 388.616 236.486 384.888 234.957 384.534C228.098 383.024 224.137 380.927 222.021 378.942C221.629 378.584 221.116 378.388 220.586 378.392Z" fill="#263238"/>
<path d="M225.386 361.327L222.403 371.439H213.81L217.026 360.526L225.386 361.327Z" fill="#CE6F64"/>
<path d="M171.516 336.452L177.714 342.258L170.817 349.826L164.628 344.02L171.516 336.452Z" fill="#CE6F64"/>
<path d="M257.614 149.176C257.549 142.4 251.416 140.033 251.416 140.033C251.416 140.033 259.087 125.512 255.144 115.876C251.202 106.239 238.21 104.542 234.09 109.044C226.849 108.736 224.547 119.138 224.547 119.138C224.547 119.138 218.489 120.153 216.858 124.562C215.227 128.97 220.194 133.938 220.194 133.938C220.194 133.938 213.279 134.87 210.734 140.191C208.19 145.513 209.756 152.578 217.398 158.673C228.508 167.527 248.928 156.418 248.928 156.418C248.928 156.418 257.689 156.967 257.614 149.176Z" fill="#263238"/>
<path d="M256.3 155.914C256.3 155.914 260.028 157.545 247.576 206.727L213.092 203.735C214.882 189.755 215.655 181.069 211.433 151.655C216.353 151.073 221.309 150.852 226.262 150.993C231.512 151.072 236.751 151.524 241.938 152.345C246.782 153.294 251.575 154.485 256.3 155.914Z" fill="#212121"/>
<path opacity="0.6" d="M256.3 155.914C256.3 155.914 260.028 157.545 247.576 206.727L213.092 203.735C214.882 189.755 215.655 181.069 211.433 151.655C216.353 151.073 221.309 150.852 226.262 150.993C231.512 151.072 236.751 151.524 241.938 152.345C246.782 153.294 251.575 154.485 256.3 155.914Z" fill="#FAFAFA"/>
<path d="M247.362 153.51C245.573 153.081 243.634 152.671 241.863 152.345C236.677 151.521 231.438 151.066 226.187 150.984C224.388 150.919 222.59 150.919 220.903 150.984L222.058 153.184C222.263 153.575 227.184 162.755 236.532 167.965L239.105 169.4L241.5 167.695C247.539 163.38 248.434 157.769 247.362 153.51Z" fill="#FAFAFA"/>
<path d="M229.272 133.472C229.822 138.607 230.008 147.936 226.196 150.993C226.196 150.993 230.558 159.279 238.816 163.874C246.123 158.673 241.873 152.345 241.873 152.345C236.365 150.481 236.868 146.361 238.145 142.521L229.272 133.472Z" fill="#E4897B"/>
<path d="M232.897 137.162L238.173 142.521C237.851 143.412 237.608 144.329 237.446 145.262C235.33 144.768 232.254 142.559 232.217 140.285C232.259 139.212 232.49 138.155 232.897 137.162Z" fill="#CE6F64"/>
<path d="M229.048 121.822C228.032 130.21 227.427 133.761 230.847 138.803C235.992 146.371 246.542 145.774 250.037 137.871C253.187 130.732 254.315 118.187 246.775 113.387C245.122 112.323 243.224 111.699 241.262 111.573C239.3 111.448 237.339 111.825 235.564 112.67C233.788 113.515 232.258 114.798 231.118 116.4C229.978 118.002 229.265 119.868 229.048 121.822Z" fill="#E4897B"/>
<path d="M235.554 111.486C242.031 113.163 235.628 132.866 225.302 127.153C225.302 127.153 225.768 118.83 228.638 115.298C230.374 113.193 232.847 111.83 235.554 111.486Z" fill="#263238"/>
<path d="M234.864 112.576C237.66 117.124 258.397 125.745 251.426 115.959C244.454 106.173 234.864 112.576 234.864 112.576Z" fill="#263238"/>
<path d="M226.383 129.082C226.266 130.716 226.799 132.33 227.865 133.574C229.3 135.205 231.192 134.217 231.788 132.241C232.32 130.471 232.217 127.488 230.307 126.575C229.885 126.389 229.424 126.31 228.964 126.345C228.505 126.381 228.061 126.529 227.673 126.777C227.285 127.025 226.964 127.365 226.739 127.768C226.513 128.17 226.391 128.621 226.383 129.082Z" fill="#E4897B"/>
<path d="M247.539 206.727C247.539 206.727 259.217 258.397 251.426 294.82C246.206 319.219 227.371 368.504 227.371 368.504L212.645 368.131C212.645 368.131 226.895 316.405 229.85 296.068C234.892 261.268 222.263 204.537 222.263 204.537L247.539 206.727Z" fill="#263238"/>
<path d="M234.072 217.156L226.709 228.769C228.928 242.539 230.335 256.428 230.922 270.364C241.276 251.826 236.374 226.97 234.072 217.156Z" fill="#263238"/>
<path d="M228.582 369.268L210.39 368.802L211.443 363.219L231.304 364.16L228.582 369.268Z" fill="#212121"/>
<path opacity="0.6" d="M228.582 369.268L210.39 368.802L211.443 363.219L231.304 364.16L228.582 369.268Z" fill="#FAFAFA"/>
<path d="M239.99 206.168C239.99 206.168 233.14 260.969 218.284 290.887C206.289 315.016 174.284 349.5 174.284 349.5L166.101 341.065C166.101 341.065 187.723 303.683 196.643 287.625C218.507 248.266 200.632 218.237 213.027 203.745L239.99 206.168Z" fill="#263238"/>
<path d="M175.104 350.581L164.535 340.283L168.049 335.511L179.559 347.412L175.104 350.581Z" fill="#212121"/>
<path opacity="0.6" d="M175.104 350.581L164.535 340.283L168.049 335.511L179.559 347.412L175.104 350.581Z" fill="#FAFAFA"/>
<path d="M212.673 201.666L210.856 204.621C210.707 204.854 210.977 205.124 211.368 205.152L247.576 208.283C247.893 208.283 248.164 208.181 248.201 207.985L248.779 204.928C248.779 204.714 248.564 204.509 248.22 204.481L213.26 201.452C213.152 201.434 213.041 201.444 212.938 201.482C212.835 201.519 212.744 201.583 212.673 201.666Z" fill="#212121"/>
<path opacity="0.3" d="M212.673 201.666L210.856 204.621C210.707 204.854 210.977 205.124 211.368 205.152L247.576 208.283C247.893 208.283 248.164 208.181 248.201 207.985L248.779 204.928C248.779 204.714 248.564 204.509 248.22 204.481L213.26 201.452C213.152 201.434 213.041 201.444 212.938 201.482C212.835 201.519 212.744 201.583 212.673 201.666Z" fill="black"/>
<path d="M217.035 205.972L216.103 205.888C215.916 205.888 215.786 205.767 215.805 205.646L216.597 201.675C216.597 201.554 216.792 201.47 216.979 201.489L217.911 201.573C218.097 201.573 218.228 201.694 218.209 201.815L217.426 205.786C217.389 205.916 217.221 205.972 217.035 205.972Z" fill="#263238"/>
<path d="M244.92 208.395L243.988 208.311C243.802 208.311 243.671 208.19 243.69 208.069L244.482 204.089C244.482 203.978 244.678 203.894 244.864 203.912L245.796 203.996C245.983 203.996 246.113 204.117 246.095 204.229L245.312 208.209C245.274 208.33 245.116 208.405 244.92 208.395Z" fill="#263238"/>
<path d="M230.978 207.184L230.046 207.109C229.859 207.109 229.729 206.979 229.747 206.867L230.54 202.887C230.54 202.775 230.735 202.691 230.922 202.71L231.854 202.785C232.04 202.785 232.171 202.915 232.152 203.027L231.369 207.007C231.332 207.118 231.136 207.202 230.978 207.184Z" fill="#263238"/>
<path d="M241.23 126.454C241.108 127.125 241.369 127.74 241.807 127.824C242.245 127.908 242.739 127.423 242.833 126.743C242.926 126.062 242.702 125.447 242.255 125.373C241.807 125.298 241.388 125.82 241.23 126.454Z" fill="#263238"/>
<path d="M248.844 127.852C248.723 128.523 248.984 129.138 249.422 129.222C249.86 129.306 250.354 128.821 250.447 128.141C250.54 127.46 250.317 126.845 249.869 126.771C249.422 126.696 249.012 127.171 248.844 127.852Z" fill="#263238"/>
<path d="M249.711 126.752L251.416 126.584C251.416 126.584 250.354 127.684 249.711 126.752Z" fill="#263238"/>
<path d="M246.644 128.616C246.97 130.27 247.519 131.872 248.275 133.379C247.884 133.561 247.458 133.655 247.027 133.655C246.595 133.655 246.169 133.561 245.778 133.379L246.644 128.616Z" fill="#DE5753"/>
<path d="M242.944 135.615C242.035 135.474 241.173 135.117 240.43 134.574C239.687 134.031 239.086 133.317 238.676 132.493C238.66 132.452 238.662 132.407 238.679 132.367C238.696 132.327 238.729 132.295 238.769 132.279C238.789 132.27 238.81 132.264 238.831 132.264C238.853 132.263 238.874 132.267 238.894 132.275C238.914 132.282 238.933 132.294 238.948 132.309C238.963 132.325 238.975 132.343 238.983 132.363C239.376 133.131 239.945 133.795 240.643 134.302C241.341 134.809 242.148 135.144 243 135.28C243.045 135.28 243.088 135.297 243.119 135.329C243.15 135.36 243.168 135.403 243.168 135.448C243.168 135.492 243.15 135.535 243.119 135.566C243.088 135.598 243.045 135.615 243 135.615H242.944Z" fill="#263238"/>
<path d="M239.412 121.16C239.341 121.161 239.271 121.14 239.213 121.099C239.155 121.058 239.111 121 239.088 120.932C239.065 120.865 239.064 120.792 239.086 120.724C239.107 120.656 239.15 120.596 239.207 120.554C239.698 120.159 240.277 119.887 240.895 119.762C241.513 119.637 242.152 119.663 242.758 119.837C242.8 119.851 242.838 119.874 242.871 119.903C242.904 119.933 242.93 119.969 242.95 120.008C242.969 120.048 242.98 120.091 242.982 120.135C242.984 120.18 242.978 120.224 242.963 120.265C242.948 120.307 242.926 120.345 242.896 120.378C242.867 120.411 242.831 120.438 242.791 120.457C242.751 120.476 242.708 120.487 242.664 120.489C242.62 120.491 242.576 120.485 242.534 120.47C242.034 120.333 241.509 120.317 241.001 120.424C240.494 120.531 240.019 120.758 239.617 121.085C239.558 121.13 239.486 121.156 239.412 121.16Z" fill="#263238"/>
<path d="M253.206 125.279C253.156 125.279 253.107 125.268 253.062 125.247C253.017 125.226 252.977 125.196 252.945 125.158C252.627 124.748 252.216 124.418 251.746 124.196C251.277 123.974 250.761 123.866 250.242 123.881C250.153 123.889 250.065 123.863 249.996 123.807C249.926 123.752 249.881 123.671 249.869 123.583C249.864 123.54 249.868 123.495 249.88 123.453C249.892 123.411 249.913 123.372 249.941 123.338C249.969 123.304 250.003 123.276 250.042 123.256C250.081 123.235 250.124 123.223 250.167 123.22C250.798 123.187 251.428 123.308 252.002 123.57C252.576 123.833 253.079 124.231 253.467 124.73C253.528 124.794 253.562 124.879 253.562 124.967C253.562 125.056 253.528 125.141 253.467 125.205C253.392 125.262 253.299 125.288 253.206 125.279Z" fill="#263238"/>
<path d="M213.978 164.032C212.576 166.813 211.02 169.514 209.318 172.122C207.64 174.694 205.869 177.21 203.959 179.634C202.028 182.066 199.959 184.384 197.761 186.577C196.624 187.649 195.515 188.739 194.294 189.746L193.362 190.51L193.138 190.697L192.84 190.93C192.643 191.09 192.438 191.239 192.225 191.377C191.378 191.957 190.456 192.421 189.485 192.756C187.656 193.353 185.724 193.565 183.809 193.381C182.094 193.209 180.405 192.837 178.776 192.272C175.76 191.219 172.883 189.801 170.211 188.05C165.07 184.715 160.335 180.793 156.101 176.362L158.58 173.762C160.807 175.552 163.156 177.332 165.56 178.944C167.916 180.594 170.368 182.1 172.905 183.455C175.32 184.781 177.869 185.847 180.51 186.633C183.026 187.332 185.552 187.453 187.295 186.726C188.279 186.298 189.16 185.662 189.876 184.862C190.911 183.93 191.871 182.896 192.849 181.889C194.76 179.811 196.531 177.583 198.274 175.365C200.016 173.147 201.592 170.705 203.12 168.282C203.894 167.07 204.63 165.84 205.357 164.61C206.084 163.38 206.783 162.084 207.389 160.928L213.978 164.032Z" fill="#E4897B"/>
<path d="M160.938 174.871L157.62 168.012L152.102 175.02C152.102 175.02 155.756 178.068 159.307 177.956L160.938 174.871Z" fill="#E4897B"/>
<path d="M153.994 166.008L150.872 171.982L152.102 175.02L157.62 168.012L153.994 166.008Z" fill="#E4897B"/>
<path d="M211.359 151.655C207.128 152.401 201.191 164.545 201.191 164.545L212.813 175.048C212.813 175.048 220.343 164.936 219.896 159.419C219.514 154.712 216.746 150.704 211.359 151.655Z" fill="#212121"/>
<path opacity="0.6" d="M211.359 151.655C207.128 152.401 201.191 164.545 201.191 164.545L212.813 175.048C212.813 175.048 220.343 164.936 219.896 159.419C219.514 154.712 216.746 150.704 211.359 151.655Z" fill="#FAFAFA"/>
<path d="M168.841 358.662C168.73 358.663 168.619 358.644 168.515 358.606C167.499 358.27 166.837 356.397 166.53 355.306C166.521 355.275 166.521 355.241 166.531 355.209C166.541 355.178 166.56 355.15 166.586 355.129C166.614 355.113 166.646 355.104 166.679 355.104C166.712 355.104 166.744 355.113 166.772 355.129C167.08 355.288 169.782 356.742 169.866 357.804C169.879 357.921 169.859 358.038 169.808 358.144C169.756 358.249 169.677 358.338 169.577 358.401C169.368 358.566 169.109 358.658 168.841 358.662ZM166.977 355.605C167.443 357.105 168.049 358.093 168.627 358.289C168.759 358.328 168.898 358.333 169.032 358.301C169.166 358.27 169.29 358.205 169.391 358.112C169.442 358.082 169.483 358.037 169.509 357.985C169.536 357.932 169.547 357.872 169.54 357.813C169.484 357.161 167.9 356.127 166.968 355.605H166.977Z" fill="#212121"/>
<path d="M169.261 356.024C168.339 356.021 167.431 355.807 166.604 355.4C166.578 355.387 166.556 355.367 166.542 355.342C166.527 355.317 166.519 355.289 166.52 355.26C166.521 355.229 166.529 355.198 166.546 355.172C166.562 355.146 166.586 355.124 166.614 355.111C166.698 355.111 168.841 353.89 169.997 354.3C170.139 354.346 170.269 354.424 170.377 354.527C170.485 354.63 170.569 354.756 170.621 354.896C170.695 355.031 170.72 355.186 170.693 355.337C170.666 355.488 170.588 355.625 170.472 355.726C170.112 355.955 169.686 356.059 169.261 356.024ZM167.061 355.26C167.993 355.651 169.754 355.894 170.258 355.465C170.342 355.4 170.416 355.278 170.314 355.017C170.277 354.923 170.219 354.838 170.145 354.768C170.071 354.699 169.982 354.647 169.885 354.617C169.093 354.337 167.667 354.962 167.061 355.26Z" fill="#212121"/>
<path d="M225.078 380.032C224.136 380.011 223.199 379.892 222.282 379.678C222.247 379.67 222.216 379.652 222.192 379.625C222.169 379.598 222.155 379.565 222.152 379.529C222.147 379.495 222.153 379.46 222.17 379.429C222.187 379.399 222.213 379.375 222.245 379.361C222.664 379.166 226.327 377.497 227.259 378.094C227.342 378.151 227.408 378.23 227.451 378.322C227.494 378.414 227.511 378.515 227.501 378.616C227.49 378.798 227.439 378.976 227.352 379.137C227.265 379.298 227.145 379.438 226.998 379.548C226.421 379.899 225.752 380.068 225.078 380.032ZM222.897 379.455C223.988 379.66 226.001 379.92 226.83 379.296C226.94 379.214 227.03 379.109 227.095 378.988C227.159 378.867 227.196 378.734 227.203 378.597C227.208 378.555 227.203 378.512 227.186 378.473C227.17 378.433 227.144 378.399 227.11 378.373C226.588 378.019 224.416 378.783 222.897 379.455Z" fill="#212121"/>
<path d="M222.357 379.678C222.321 379.693 222.281 379.693 222.245 379.678C222.221 379.658 222.204 379.631 222.194 379.602C222.184 379.572 222.183 379.541 222.189 379.51C222.189 379.361 223.065 375.736 225.05 375.969C225.553 376.025 225.684 376.276 225.712 376.472C225.842 377.404 223.522 379.268 222.422 379.706L222.357 379.678ZM224.873 376.258C223.596 376.258 222.86 378.364 222.608 379.212C223.81 378.578 225.46 377.069 225.404 376.481C225.404 376.435 225.404 376.304 225.041 376.267L224.873 376.258Z" fill="#212121"/>
<path d="M242.059 125.373L243.765 125.196C243.765 125.196 242.702 126.314 242.059 125.373Z" fill="#263238"/>
<path opacity="0.6" d="M171.945 72.258L144.628 248.844L298.333 272.591L325.65 95.996L171.945 72.258ZM235.097 172.7C228.042 171.608 221.469 168.448 216.211 163.62C210.952 158.791 207.243 152.512 205.554 145.576C203.865 138.639 204.271 131.358 206.721 124.652C209.171 117.947 213.555 112.119 219.318 107.905C225.081 103.692 231.965 101.283 239.097 100.982C246.23 100.682 253.292 102.503 259.389 106.217C265.486 109.931 270.344 115.369 273.35 121.845C276.355 128.321 277.372 135.542 276.273 142.596C274.8 152.046 269.635 160.524 261.915 166.169C254.194 171.813 244.548 174.162 235.097 172.7Z" fill="#212121"/>
<g style="mix-blend-mode:multiply" opacity="0.3">
<path d="M293.692 265.89H293.459L139.52 242.04V241.807L166.912 65.0163H167.136L321.074 88.8662V89.0992L293.692 265.89ZM140.052 241.658L293.3 265.359L320.543 89.211L167.294 65.5476L140.052 241.658Z" fill="#212121"/>
</g>
<path d="M240.633 174.526C238.708 174.524 236.785 174.375 234.883 174.079C225.321 172.587 216.709 167.45 210.854 159.746C204.998 152.042 202.354 142.369 203.476 132.758C204.598 123.146 209.399 114.342 216.871 108.194C224.344 102.046 233.907 99.0303 243.555 99.7808C253.203 100.531 262.185 104.989 268.617 112.22C275.049 119.45 278.431 128.89 278.053 138.559C277.675 148.229 273.566 157.376 266.59 164.082C259.613 170.788 250.31 174.531 240.633 174.526ZM235.311 171.32C242.089 172.367 249.026 171.381 255.243 168.487C261.461 165.592 266.681 160.919 270.242 155.058C273.804 149.197 275.548 142.411 275.254 135.559C274.96 128.707 272.641 122.096 268.589 116.562C264.538 111.028 258.937 106.82 252.494 104.469C246.051 102.118 239.056 101.73 232.393 103.354C225.73 104.978 219.698 108.542 215.059 113.594C210.421 118.647 207.385 124.961 206.335 131.738C204.94 140.828 207.207 150.1 212.639 157.521C218.071 164.941 226.225 169.904 235.311 171.32Z" fill="#FAFAFA"/>
<path d="M205.407 183.625L171.549 178.389L170.372 185.997L204.23 191.233L205.407 183.625Z" fill="#212121"/>
<path opacity="0.6" d="M205.407 183.625L171.549 178.389L170.372 185.997L204.23 191.233L205.407 183.625Z" fill="#FAFAFA"/>
<path d="M232.773 187.858L209.866 184.316L208.69 191.924L231.597 195.466L232.773 187.858Z" fill="#212121"/>
<path opacity="0.6" d="M232.773 187.858L209.866 184.316L208.69 191.924L231.597 195.466L232.773 187.858Z" fill="#FAFAFA"/>
<path d="M291.595 212.738L169.159 193.806L167.983 201.413L290.418 220.346L291.595 212.738Z" fill="#FAFAFA"/>
<path d="M228.539 219.131L167.55 209.89L166.395 217.511L227.384 226.752L228.539 219.131Z" fill="#FAFAFA"/>
<path d="M278.69 227.306L237.961 221.008L236.785 228.616L277.514 234.914L278.69 227.306Z" fill="#FAFAFA"/>
<path d="M262.041 241.3L164.161 226.165L162.984 233.773L260.865 248.908L262.041 241.3Z" fill="#FAFAFA"/>
<path d="M327.29 272.591H326.358C326.362 270.279 326.077 267.974 325.51 265.732L326.442 265.508C327.019 267.825 327.304 270.204 327.29 272.591ZM323.637 260.55C321.586 256.258 318.486 252.553 314.625 249.776L315.165 249.021C319.153 251.885 322.358 255.705 324.485 260.131L323.637 260.55Z" fill="#212121"/>
<path opacity="0.6" d="M327.29 272.591H326.358C326.362 270.279 326.077 267.974 325.51 265.732L326.442 265.508C327.019 267.825 327.304 270.204 327.29 272.591ZM323.637 260.55C321.586 256.258 318.486 252.553 314.625 249.776L315.165 249.021C319.153 251.885 322.358 255.705 324.485 260.131L323.637 260.55Z" fill="#FAFAFA"/>
<path d="M298.333 246.896C293.251 246.896 288.283 248.403 284.058 251.227C279.832 254.05 276.539 258.063 274.594 262.758C272.649 267.453 272.14 272.62 273.132 277.604C274.123 282.589 276.57 287.167 280.164 290.761C283.757 294.354 288.336 296.801 293.32 297.793C298.305 298.784 303.471 298.275 308.166 296.331C312.862 294.386 316.875 291.092 319.698 286.867C322.521 282.641 324.028 277.673 324.028 272.591C324.028 265.777 321.321 259.241 316.502 254.422C311.684 249.603 305.148 246.896 298.333 246.896ZM298.333 294.959C293.909 294.959 289.585 293.647 285.906 291.19C282.228 288.732 279.361 285.238 277.668 281.151C275.975 277.064 275.532 272.567 276.395 268.228C277.258 263.889 279.388 259.903 282.517 256.775C285.645 253.647 289.63 251.516 293.969 250.653C298.308 249.79 302.806 250.233 306.893 251.926C310.98 253.619 314.474 256.486 316.932 260.164C319.389 263.843 320.701 268.167 320.701 272.591C320.701 278.524 318.345 284.213 314.15 288.408C309.955 292.603 304.266 294.959 298.333 294.959Z" fill="#212121"/>
<path opacity="0.6" d="M298.333 246.896C293.251 246.896 288.283 248.403 284.058 251.227C279.832 254.05 276.539 258.063 274.594 262.758C272.649 267.453 272.14 272.62 273.132 277.604C274.123 282.589 276.57 287.167 280.164 290.761C283.757 294.354 288.336 296.801 293.32 297.793C298.305 298.784 303.471 298.275 308.166 296.331C312.862 294.386 316.875 291.092 319.698 286.867C322.521 282.641 324.028 277.673 324.028 272.591C324.028 265.777 321.321 259.241 316.502 254.422C311.684 249.603 305.148 246.896 298.333 246.896ZM298.333 294.959C293.909 294.959 289.585 293.647 285.906 291.19C282.228 288.732 279.361 285.238 277.668 281.151C275.975 277.064 275.532 272.567 276.395 268.228C277.258 263.889 279.388 259.903 282.517 256.775C285.645 253.647 289.63 251.516 293.969 250.653C298.308 249.79 302.806 250.233 306.893 251.926C310.98 253.619 314.474 256.486 316.932 260.164C319.389 263.843 320.701 268.167 320.701 272.591C320.701 278.524 318.345 284.213 314.15 288.408C309.955 292.603 304.266 294.959 298.333 294.959Z" fill="#FAFAFA"/>
<path d="M298.333 294.95C310.682 294.95 320.692 284.94 320.692 272.591C320.692 260.243 310.682 250.233 298.333 250.233C285.985 250.233 275.974 260.243 275.974 272.591C275.974 284.94 285.985 294.95 298.333 294.95Z" fill="#212121"/>
<path opacity="0.2" d="M298.333 294.95C310.682 294.95 320.692 284.94 320.692 272.591C320.692 260.243 310.682 250.233 298.333 250.233C285.985 250.233 275.974 260.243 275.974 272.591C275.974 284.94 285.985 294.95 298.333 294.95Z" fill="black"/>
<path d="M294.857 286.739L281.734 273.617L285.034 270.327L294.857 280.15L311.642 263.365L314.932 266.664L294.857 286.739Z" fill="#FAFAFA"/>
</svg>
